<?xml version="1.0" encoding="utf-8" ?>
<!DOCTYPE svg PUBLIC "-//W3C//DTD SVG 1.1//EN" "http://www.w3.org/Graphics/SVG/1.1/DTD/svg11.dtd">
<svg height="413" version="1.1" width="552" xmlns="http://www.w3.org/2000/svg">
<rect fill="#ffffff" height="127" stroke="#ffffff" stroke-width="1" width="110" x="298" y="190"/>
<rect fill="none" height="127" stroke="#000000" stroke-width="1" width="110" x="298" y="190"/>
<text font-family="Dialog" font-size="10" x="337" y="202">
frac_ss</text>
<rect fill="#000000" height="1" stroke="#000000" stroke-width="1" width="110" x="298" y="212"/>
<text font-family="Dialog" font-size="10" x="302" y="225">
A : double</text>
<text font-family="Dialog" font-size="10" x="302" y="240">
B : double</text>
<text font-family="Dialog" font-size="10" x="302" y="255">
C : double</text>
<text font-family="Dialog" font-size="10" x="302" y="270">
D : double</text>
<text font-family="Dialog" font-size="10" x="302" y="285">
comm_order : double</text>
<rect fill="#000000" height="1" stroke="#000000" stroke-width="1" width="110" x="298" y="295"/>
<rect fill="#ffffff" height="82" stroke="#ffffff" stroke-width="1" width="106" x="186" y="190"/>
<rect fill="none" height="82" stroke="#000000" stroke-width="1" width="106" x="186" y="190"/>
<text font-family="Dialog" font-size="10" x="224" y="202">
frac_tf</text>
<rect fill="#000000" height="1" stroke="#000000" stroke-width="1" width="106" x="186" y="212"/>
<text font-family="Dialog" font-size="10" x="190" y="225">
num : frac_poly_exp</text>
<text font-family="Dialog" font-size="10" x="190" y="240">
den : frac_poly_exp</text>
<rect fill="#000000" height="1" stroke="#000000" stroke-width="1" width="106" x="186" y="250"/>
<rect fill="#ffffff" height="112" stroke="#ffffff" stroke-width="1" width="120" x="418" y="190"/>
<rect fill="none" height="112" stroke="#000000" stroke-width="1" width="120" x="418" y="190"/>
<text font-family="Dialog" font-size="10" x="458" y="202">
frac_zpk</text>
<rect fill="#000000" height="1" stroke="#000000" stroke-width="1" width="120" x="418" y="212"/>
<text font-family="Dialog" font-size="10" x="422" y="225">
zero : cell</text>
<text font-family="Dialog" font-size="10" x="422" y="240">
poles : cell</text>
<text font-family="Dialog" font-size="10" x="422" y="255">
Gain : cell</text>
<text font-family="Dialog" font-size="10" x="422" y="270">
comm_order : double</text>
<rect fill="#000000" height="1" stroke="#000000" stroke-width="1" width="120" x="418" y="280"/>
<rect fill="#ffffff" height="142" stroke="#ffffff" stroke-width="1" width="90" x="290" y="14"/>
<rect fill="none" height="142" stroke="#000000" stroke-width="1" width="90" x="290" y="14"/>
<text font-family="Dialog" font-size="10" x="318" y="26">
frac_lti</text>
<rect fill="#000000" height="1" stroke="#000000" stroke-width="1" width="90" x="290" y="36"/>
<text font-family="Dialog" font-size="10" x="294" y="49">
variable : String</text>
<text font-family="Dialog" font-size="10" x="294" y="64">
version : String</text>
<text font-family="Dialog" font-size="10" x="294" y="79">
Ts : double</text>
<text font-family="Dialog" font-size="10" x="294" y="94">
N : double</text>
<text font-family="Dialog" font-size="10" x="294" y="109">
band : double</text>
<text font-family="Dialog" font-size="10" x="294" y="124">
sim : String</text>
<rect fill="#000000" height="1" stroke="#000000" stroke-width="1" width="90" x="290" y="134"/>
<polyline fill="none" points="338,190 338,156" stroke="#000000" stroke-width="1"/>
<polygon fill="#ffffff" points="338,156 345,168 331,168" stroke="#ffffff" stroke-width="1"/>
<polygon fill="none" points="338,156 345,168 331,168" stroke="#000000" stroke-width="1"/>
<polyline fill="none" points="466,190 466,174 338,174 338,156" stroke="#000000" stroke-width="1"/>
<polygon fill="#ffffff" points="338,156 345,168 331,168" stroke="#ffffff" stroke-width="1"/>
<polygon fill="none" points="338,156 345,168 331,168" stroke="#000000" stroke-width="1"/>
<rect fill="#ffffff" height="82" stroke="#ffffff" stroke-width="1" width="90" x="74" y="190"/>
<rect fill="none" height="82" stroke="#000000" stroke-width="1" width="90" x="74" y="190"/>
<text font-family="Dialog" font-size="10" x="85" y="202">
frac_poly_exp</text>
<rect fill="#000000" height="1" stroke="#000000" stroke-width="1" width="90" x="74" y="212"/>
<text font-family="Dialog" font-size="10" x="78" y="225">
coef : cell</text>
<text font-family="Dialog" font-size="10" x="78" y="240">
order : cell</text>
<rect fill="#000000" height="1" stroke="#000000" stroke-width="1" width="90" x="74" y="250"/>
<rect fill="#ffffff" height="81" stroke="#ffffff" stroke-width="1" width="90" x="74" y="318"/>
<rect fill="none" height="81" stroke="#000000" stroke-width="1" width="90" x="74" y="318"/>
<text font-family="Dialog" font-size="10" x="85" y="330">
frac_poly_imp</text>
<rect fill="#000000" height="1" stroke="#000000" stroke-width="1" width="90" x="74" y="340"/>
<text font-family="Dialog" font-size="10" x="78" y="353">
imp_order : cell</text>
<rect fill="#000000" height="1" stroke="#000000" stroke-width="1" width="90" x="74" y="370"/>
<polyline fill="none" points="226,272 226,302 130,302 130,272" stroke="#000000" stroke-width="1"/>
<polygon fill="#ffffff" points="226,272 231,282 226,292 221,282" stroke="#ffffff" stroke-width="1"/>
<polygon fill="none" points="226,272 231,282 226,292 221,282" stroke="#000000" stroke-width="1"/>
<text font-family="Dialog" font-size="10" x="206" y="292">
2</text>
<text font-family="Dialog" font-size="10" x="145" y="291">
2</text>
<polyline fill="none" points="106,318 106,272" stroke="#000000" stroke-width="1"/>
<polygon fill="#ffffff" points="106,272 113,284 99,284" stroke="#ffffff" stroke-width="1"/>
<polygon fill="none" points="106,272 113,284 99,284" stroke="#000000" stroke-width="1"/>
<polyline fill="none" points="226,190 226,174 338,174 338,156" stroke="#000000" stroke-width="1"/>
<polygon fill="#ffffff" points="338,156 345,168 331,168" stroke="#ffffff" stroke-width="1"/>
<polygon fill="none" points="338,156 345,168 331,168" stroke="#000000" stroke-width="1"/>
</svg>
